<?xml version="1.0" standalone="no"?><!DOCTYPE svg PUBLIC "-//W3C//DTD SVG 1.1//EN" "http://www.w3.org/Graphics/SVG/1.1/DTD/svg11.dtd"><svg t="1601261247962" class="icon" viewBox="0 0 1024 1024" version="1.1" xmlns="http://www.w3.org/2000/svg" p-id="3300" width="128" height="128" xmlns:xlink="http://www.w3.org/1999/xlink"><defs><style type="text/css"></style></defs><path d="M768 352a224 224 0 0 1 0 448h-32a32 32 0 0 1 0-64h32a160 160 0 0 0 0-320 147.2 147.2 0 0 0-27.84 2.56 32 32 0 0 1-38.08-27.52 192 192 0 0 0-380.16 0 32 32 0 0 1-38.08 27.52A147.2 147.2 0 0 0 256 416a160 160 0 0 0 0 320h32a32 32 0 0 1 0 64h-32a224 224 0 0 1 0-448h8.32a256 256 0 0 1 495.36 0z" p-id="3301"></path><path d="M544 896a32 32 0 0 1-64 0V608a32 32 0 0 1 64 0z" p-id="3302"></path><path d="M424 757.12a32 32 0 1 1-48-42.24l112-128a32 32 0 0 1 48 0l112 128a32 32 0 0 1-48 42.24l-88-100.48z" p-id="3303"></path></svg>